<svg width="17" height="12" viewBox="0 0 17 12" fill="none" xmlns="http://www.w3.org/2000/svg">
<path d="M5.29601 9.78112L4.85886 10.2118C4.80057 10.2692 4.73354 10.2979 4.65776 10.2979C4.58199 10.2979 4.51496 10.2692 4.45667 10.2118L0.382354 6.1981C0.324066 6.14068 0.294922 6.07465 0.294922 6C0.294922 5.92535 0.324066 5.85932 0.382354 5.8019L4.45667 1.78823C4.51496 1.73081 4.58199 1.7021 4.65776 1.7021C4.73354 1.7021 4.80057 1.73081 4.85886 1.78823L5.29601 2.21888C5.3543 2.2763 5.38345 2.34234 5.38345 2.41698C5.38345 2.49163 5.3543 2.55766 5.29601 2.61508L1.85995 6L5.29601 9.38492C5.3543 9.44234 5.38345 9.50837 5.38345 9.58302C5.38345 9.65766 5.3543 9.72369 5.29601 9.78112ZM10.4632 0.591023L7.20203 11.7104C7.17871 11.7851 7.13354 11.8411 7.06651 11.8784C6.99948 11.9157 6.93099 11.9229 6.86104 11.8999L6.31897 11.7535C6.24319 11.7305 6.18636 11.686 6.14847 11.62C6.11059 11.554 6.1033 11.4836 6.12662 11.409L9.38782 0.289567C9.41113 0.214921 9.45631 0.158936 9.52334 0.121613C9.59037 0.0842901 9.65886 0.0771126 9.7288 0.100081L10.2709 0.246502C10.3467 0.26947 10.4035 0.313971 10.4414 0.380004C10.4793 0.446037 10.4865 0.516377 10.4632 0.591023ZM16.2075 6.1981L12.1332 10.2118C12.0749 10.2692 12.0079 10.2979 11.9321 10.2979C11.8563 10.2979 11.7893 10.2692 11.731 10.2118L11.2938 9.78112C11.2355 9.72369 11.2064 9.65766 11.2064 9.58302C11.2064 9.50837 11.2355 9.44234 11.2938 9.38492L14.7299 6L11.2938 2.61508C11.2355 2.55766 11.2064 2.49163 11.2064 2.41698C11.2064 2.34234 11.2355 2.2763 11.2938 2.21888L11.731 1.78823C11.7893 1.73081 11.8563 1.7021 11.9321 1.7021C12.0079 1.7021 12.0749 1.73081 12.1332 1.78823L16.2075 5.8019C16.2658 5.85932 16.2949 5.92535 16.2949 6C16.2949 6.07465 16.2658 6.14068 16.2075 6.1981Z" fill="white"/>
</svg>
