<svg width="12" height="13" viewBox="0 0 12 13" fill="none" xmlns="http://www.w3.org/2000/svg">
<path d="M5.76434 0.5C5.07143 0.500595 4.40708 0.773099 3.91712 1.25769C3.42716 1.74228 3.15164 2.39936 3.15103 3.08467V3.19705H2.24206C1.91326 3.19779 1.59581 3.31602 1.34819 3.52996C1.10056 3.7439 0.939439 4.03913 0.894504 4.36128L0.0127983 10.6544C-0.0137148 10.8444 0.00107166 11.0379 0.0561702 11.2218C0.111269 11.4057 0.205411 11.5759 0.332311 11.721C0.459211 11.8661 0.615947 11.9827 0.792053 12.0631C0.968158 12.1435 1.15958 12.1858 1.35354 12.1872H8.17085L7.62546 11.2882H1.35354C1.28832 11.2888 1.22374 11.2755 1.16418 11.2492C1.10462 11.2229 1.05148 11.1843 1.00836 11.1359C0.965247 11.0875 0.933169 11.0305 0.914307 10.9687C0.895445 10.907 0.890241 10.8419 0.899049 10.778L1.78075 4.48489C1.79568 4.37648 1.85008 4.27717 1.93375 4.20559C2.01742 4.13401 2.12462 4.09506 2.23524 4.09607L9.31616 4.08258C9.42678 4.08158 9.53397 4.12052 9.61764 4.1921C9.70131 4.26368 9.75571 4.36299 9.77064 4.47141L10.2251 7.87643L11.2227 8.46753L10.6683 4.34779C10.6243 4.02445 10.4633 3.72784 10.2151 3.51294C9.96686 3.29804 9.6483 3.17942 9.31843 3.17907H8.37764V3.08467C8.37704 2.39936 8.10151 1.74228 7.61156 1.25769C7.1216 0.773099 6.45724 0.500595 5.76434 0.5ZM7.46866 3.18356H4.06001V3.08467C4.06001 2.63761 4.23957 2.20886 4.55919 1.89273C4.87882 1.57661 5.31232 1.39902 5.76434 1.39902C6.21635 1.39902 6.64986 1.57661 6.96948 1.89273C7.2891 2.20886 7.46866 2.63761 7.46866 3.08467V3.18356Z" fill="white"/>
</svg>
