<svg width="319" height="1173" viewBox="0 0 319 1173" fill="none" xmlns="http://www.w3.org/2000/svg">
<rect x="537.995" width="940.044" height="703.49" transform="rotate(49.8849 537.995 0)" fill="white"/>
<mask id="mask0_224_1844" style="mask-type:alpha" maskUnits="userSpaceOnUse" x="0" y="0" width="1144" height="1173">
<rect x="537.995" width="940.044" height="703.49" transform="rotate(49.8849 537.995 0)" fill="white"/>
</mask>
<g mask="url(#mask0_224_1844)">
<path d="M298.461 201.815C311.96 190.442 332.142 192.188 343.539 205.715L364.175 230.208L315.291 271.395L294.654 246.901C283.257 233.374 284.962 213.188 298.461 201.815Z" fill="#FFD726"/>
<path d="M229.354 527.617C222.934 533.026 215.51 537.115 207.505 539.65C199.499 542.185 191.07 543.117 182.698 542.392C174.326 541.668 166.176 539.302 158.712 535.428C151.248 531.555 144.617 526.25 139.197 519.817L188.081 478.631L229.354 527.617Z" fill="#94C0D4"/>
<path d="M302.541 733.533C299.846 730.334 297.809 726.633 296.547 722.643C295.285 718.653 294.823 714.45 295.186 710.275C295.551 706.101 296.733 702.036 298.667 698.314C300.602 694.591 303.249 691.283 306.459 688.579C309.668 685.875 313.378 683.827 317.375 682.552C321.371 681.278 325.578 680.803 329.753 681.152C333.929 681.502 337.992 682.671 341.711 684.591C345.429 686.512 348.73 689.147 351.426 692.346L302.541 733.533Z" fill="#FFD726"/>
<path d="M48.8848 412.09C51.5801 415.289 53.6169 418.989 54.8787 422.98C56.1404 426.97 56.6027 431.173 56.239 435.347C55.8752 439.521 54.6924 443.586 52.7585 447.309C50.8244 451.031 48.1769 454.339 44.9671 457.044C41.7573 459.748 38.0481 461.796 34.0511 463.07C30.0542 464.344 25.8479 464.82 21.6723 464.47C17.4967 464.12 13.4336 462.952 9.71514 461.031C5.99663 459.11 2.69546 456.475 0.000123841 453.276L48.8848 412.09Z" fill="#161616"/>
<path d="M82.545 551.249C77.125 544.816 73.0191 537.384 70.4617 529.376C67.9045 521.369 66.9456 512.943 67.6403 504.58C68.3348 496.217 70.6691 488.08 74.5099 480.635C78.3508 473.19 83.6228 466.581 90.0251 461.187C96.4273 455.793 103.834 451.719 111.824 449.197C119.813 446.676 128.227 445.756 136.587 446.49C144.946 447.225 153.087 449.6 160.545 453.479C168.002 457.358 174.63 462.665 180.05 469.098L82.545 551.249Z" fill="#FFD726"/>
<path d="M256.101 321.264L297.373 370.25L248.488 411.437C243.068 405.004 238.966 397.569 236.415 389.556C233.865 381.542 232.916 373.108 233.623 364.735C234.33 356.361 236.679 348.213 240.535 340.754C244.392 333.295 249.681 326.672 256.101 321.264Z" fill="#F45B0F"/>
<path d="M354.025 338.819C359.445 345.252 363.551 352.684 366.108 360.691C368.665 368.699 369.624 377.125 368.929 385.488C368.234 393.851 365.9 401.988 362.06 409.433C358.219 416.878 352.947 423.486 346.545 428.88C340.143 434.274 332.736 438.349 324.747 440.87C316.758 443.392 308.343 444.311 299.983 443.577C291.623 442.842 283.483 440.468 276.025 436.589C268.568 432.71 261.94 427.402 256.52 420.969L354.025 338.819Z" fill="#F45B0F"/>
<path d="M181.376 668.552C187.795 663.143 195.216 659.051 203.216 656.509C211.216 653.967 219.637 653.026 227.998 653.738C236.36 654.45 244.498 656.802 251.949 660.659C259.399 664.516 266.016 669.803 271.421 676.219C276.826 682.634 280.914 690.053 283.451 698.05C285.988 706.046 286.925 714.466 286.208 722.827C285.491 731.188 283.134 739.327 279.272 746.779C275.409 754.232 270.117 760.851 263.697 766.26L181.376 668.552Z" fill="#94C0D4"/>
<path d="M369.234 693.641C374.654 700.074 378.76 707.507 381.317 715.514C383.874 723.521 384.833 731.947 384.138 740.31C383.444 748.673 381.109 756.81 377.269 764.255C373.428 771.701 368.156 778.309 361.754 783.703C355.352 789.097 347.945 793.172 339.955 795.693C331.966 798.215 323.552 799.134 315.192 798.4C306.832 797.665 298.691 795.29 291.234 791.412C283.777 787.533 277.149 782.225 271.729 775.792L369.234 693.641Z" fill="#048ECB"/>
<path d="M280.403 568.366C274.983 561.933 270.877 554.501 268.32 546.493C265.763 538.486 264.804 530.06 265.499 521.697C266.194 513.334 268.528 505.197 272.368 497.752C276.209 490.307 281.481 483.699 287.883 478.304C294.285 472.91 301.692 468.836 309.681 466.315C317.671 463.793 326.085 462.874 334.445 463.608C342.805 464.343 350.946 466.717 358.403 470.596C365.86 474.475 372.488 479.783 377.908 486.215L280.403 568.366Z" fill="#94C0D4"/>
<path d="M107.282 362.888L204.787 280.737C210.207 287.17 214.313 294.603 216.87 302.61C219.427 310.618 220.386 319.044 219.692 327.407C218.997 335.77 216.663 343.907 212.822 351.352C208.981 358.797 203.709 365.405 197.307 370.799C190.905 376.193 183.498 380.268 175.509 382.789C167.52 385.311 159.105 386.23 150.746 385.496C142.386 384.761 134.245 382.387 126.787 378.508C119.33 374.629 112.702 369.321 107.282 362.888Z" fill="#F45B0F"/>
<path d="M156.586 421.407C163.005 415.998 170.427 411.906 178.426 409.365C186.425 406.823 194.846 405.881 203.208 406.593C211.569 407.305 219.708 409.657 227.159 413.514C234.609 417.371 241.226 422.659 246.631 429.074C252.037 435.49 256.125 442.908 258.662 450.905C261.198 458.902 262.135 467.321 261.418 475.683C260.701 484.044 258.344 492.183 254.482 499.635C250.62 507.087 245.327 513.706 238.908 519.115L156.586 421.407Z" fill="#048ECB"/>
<path d="M319.93 635.122C313.511 640.531 306.089 644.624 298.09 647.165C290.09 649.707 281.669 650.649 273.308 649.937C264.946 649.225 256.808 646.873 249.357 643.016C241.907 639.158 235.29 633.871 229.885 627.455C224.479 621.04 220.391 613.621 217.854 605.625C215.317 597.628 214.381 589.208 215.098 580.847C215.815 572.486 218.172 564.347 222.034 556.895C225.896 549.442 231.189 542.823 237.608 537.414L319.93 635.122Z" fill="#F45B0F"/>
<path d="M201.37 593.074C212.767 606.602 211.063 626.788 197.564 638.161L173.121 658.754L131.849 609.768L156.291 589.175C169.79 577.801 189.973 579.547 201.37 593.074Z" fill="#048ECB"/>
<path d="M280.279 300.893C266.78 312.266 246.597 310.521 235.2 296.993L214.564 272.5L263.449 231.313L284.085 255.807C295.482 269.334 293.778 289.52 280.279 300.893Z" fill="#048ECB"/>
<path d="M145.817 547.517C154.873 558.266 153.519 574.305 142.793 583.343C132.066 592.38 116.03 590.992 106.974 580.244C97.9176 569.495 99.2716 553.455 109.998 544.418C120.724 535.381 136.761 536.768 145.817 547.517Z" fill="#E6E6E6"/>
<path d="M113.638 390.81C122.694 401.559 121.34 417.599 110.614 426.636C99.8878 435.673 83.851 434.286 74.7949 423.537C65.7389 412.788 67.0929 396.749 77.8192 387.712C88.5456 378.674 104.582 380.062 113.638 390.81Z" fill="#048ECB"/>
<path d="M329.15 309.294C338.206 320.043 336.852 336.083 326.126 345.12C315.399 354.157 299.362 352.77 290.306 342.021C281.25 331.273 282.604 315.233 293.331 306.196C304.057 297.158 320.094 298.546 329.15 309.294Z" fill="#161616"/>
<path d="M343.899 564.899C352.955 575.648 351.601 591.687 340.874 600.725C330.148 609.762 314.111 608.374 305.055 597.626C295.999 586.877 297.353 570.837 308.079 561.8C318.806 552.763 334.843 554.15 343.899 564.899Z" fill="#161616"/>
</g>
</svg>
