<svg width="13" height="12" viewBox="0 0 13 12" fill="none" xmlns="http://www.w3.org/2000/svg">
<path d="M11.8225 8.13852L10.8118 7.12781C10.5105 6.82895 10.1039 6.66045 9.67952 6.65864C9.25515 6.65684 8.84707 6.82187 8.54325 7.11817C8.38114 7.2812 8.16728 7.38264 7.93845 7.40503C7.70963 7.42742 7.48016 7.36935 7.28952 7.24083C6.53709 6.73867 5.8907 6.09353 5.38709 5.34208C5.26083 5.14931 5.20486 4.91892 5.22863 4.68972C5.2524 4.46051 5.35444 4.2465 5.51756 4.08375C5.81117 3.77965 5.97408 3.3727 5.97142 2.95C5.96876 2.5273 5.80074 2.12244 5.50332 1.82206L4.49262 0.811353C4.19002 0.509798 3.78024 0.340473 3.35304 0.340473C2.92585 0.340473 2.51606 0.509798 2.21347 0.811353L1.92266 1.10262C0.406602 2.61868 0.520077 5.80608 3.6744 8.95857C5.57637 10.861 7.49074 11.6576 9.04309 11.6576C9.50006 11.6728 9.95548 11.597 10.3828 11.4344C10.8102 11.2718 11.2009 11.0258 11.5322 10.7108L11.8235 10.4195C12.1256 10.1168 12.2952 9.70651 12.295 9.27882C12.2948 8.85114 12.1249 8.44101 11.8225 8.13852ZM11.1729 9.76989L10.8817 10.0612C9.68719 11.2556 7.05062 11.0374 4.32309 8.30942C1.59556 5.58143 1.37688 2.94303 2.57135 1.74855L2.86032 1.45775C2.99043 1.32811 3.16662 1.25532 3.35029 1.25532C3.53396 1.25532 3.71014 1.32811 3.84025 1.45775L4.85096 2.46845C4.9787 2.59684 5.05121 2.77007 5.05302 2.95117C5.05482 3.13227 4.98577 3.30691 4.86061 3.43781C4.55017 3.75023 4.35652 4.15983 4.31211 4.59801C4.2677 5.03619 4.37522 5.47633 4.61666 5.84467C5.18888 6.70098 5.92472 7.43572 6.78187 8.00667C7.14911 8.24814 7.58809 8.35629 8.02548 8.31307C8.46287 8.26984 8.87218 8.07784 9.18505 7.76915C9.31571 7.64251 9.49084 7.57218 9.67279 7.5733C9.85475 7.57441 10.029 7.64688 10.1581 7.77513L11.1688 8.78583C11.2339 8.85003 11.2857 8.92648 11.3212 9.01077C11.3567 9.09507 11.3752 9.18554 11.3756 9.277C11.3759 9.36846 11.3582 9.45909 11.3235 9.54368C11.2887 9.62827 11.2375 9.70515 11.1729 9.76989Z" fill="white"/>
</svg>
