<svg width="16" height="12" viewBox="0 0 16 12" fill="none" xmlns="http://www.w3.org/2000/svg">
<path d="M0.763672 11.1562H14.8262C14.9505 11.1562 15.0697 11.1069 15.1576 11.019C15.2455 10.931 15.2949 10.8118 15.2949 10.6875V9.28125C15.2949 9.15693 15.2455 9.0377 15.1576 8.94979C15.0697 8.86189 14.9505 8.8125 14.8262 8.8125H13.8887V1.3125C13.8887 1.18818 13.8393 1.06895 13.7514 0.981044C13.6635 0.893136 13.5442 0.84375 13.4199 0.84375H2.16992C2.0456 0.84375 1.92637 0.893136 1.83847 0.981044C1.75056 1.06895 1.70117 1.18818 1.70117 1.3125V8.8125H0.763672C0.639352 8.8125 0.520123 8.86189 0.432216 8.94979C0.344308 9.0377 0.294922 9.15693 0.294922 9.28125L0.294922 10.6875C0.294922 10.8118 0.344308 10.931 0.432216 11.019C0.520123 11.1069 0.639352 11.1562 0.763672 11.1562ZM2.63867 1.78125H12.9512V8.8125H2.63867V1.78125ZM1.23242 9.75H14.3574V10.2188H1.23242V9.75Z" fill="white"/>
</svg>
