<svg width="20" height="20" viewBox="0 0 20 20" fill="none" xmlns="http://www.w3.org/2000/svg">
<path d="M1.33631 14.9962C2.14027 16.3894 3.26905 17.5677 4.62651 18.4306C5.98397 19.2936 7.52989 19.8157 9.13261 19.9524L13.6587 12.113L9.99403 9.99751L6.33185 12.112L5.11086 9.99689L4.21676 8.44857L1.80694 4.27454C0.716568 5.83171 0.0930981 7.66766 0.00973516 9.5668C-0.0736278 11.466 0.386576 13.3495 1.33631 14.9962Z" fill="#00AC47"/>
<path d="M9.99409 3.33869e-07C8.38552 -0.000415687 6.80068 0.387965 5.37456 1.13206C3.94843 1.87616 2.72329 2.95392 1.80347 4.27356L6.3296 12.113L9.99409 9.99745V5.76842H19.0436C18.2402 4.04564 16.962 2.5878 15.3591 1.56603C13.7562 0.544273 11.895 0.00100287 9.99409 3.33869e-07Z" fill="#EA4435"/>
<path d="M18.6511 14.9962C19.4556 13.6034 19.9116 12.0368 19.9802 10.4298C20.0488 8.82281 19.728 7.22304 19.0452 5.76672H9.99299V9.99775L13.6555 12.1122L12.4345 14.2273L11.5404 15.7759L9.13049 19.9499C11.0243 20.1155 12.926 19.7374 14.6124 18.8599C16.2988 17.9825 17.6999 16.6421 18.6511 14.9962Z" fill="#FFBA00"/>
<path d="M9.99336 14.2286C12.3296 14.2286 14.2235 12.3347 14.2235 9.99846C14.2235 7.6622 12.3296 5.76828 9.99336 5.76828C7.6571 5.76828 5.76318 7.6622 5.76318 9.99846C5.76318 12.3347 7.6571 14.2286 9.99336 14.2286Z" fill="white"/>
<path d="M9.99338 13.2672C11.7987 13.2672 13.2622 11.8037 13.2622 9.99845C13.2622 8.19316 11.7987 6.72968 9.99338 6.72968C8.18809 6.72968 6.72461 8.19316 6.72461 9.99845C6.72461 11.8037 8.18809 13.2672 9.99338 13.2672Z" fill="#4285F4"/>
</svg>
