<svg width="483" height="917" viewBox="0 0 483 917" fill="none" xmlns="http://www.w3.org/2000/svg">
<g clip-path="url(#clip0_224_852)">
<mask id="mask0_224_852" style="mask-type:luminance" maskUnits="userSpaceOnUse" x="-582" y="0" width="1065" height="917">
<path d="M279.792 -4.2368e-05L-582 271.483L-378.886 916.247L482.907 644.764L279.792 -4.2368e-05Z" fill="white"/>
</mask>
<g mask="url(#mask0_224_852)">
<path d="M-712.693 381.62C-663.582 444.311 -619.612 511.347 -575.533 577.603C-528.545 648.217 -502.726 729.953 -469.239 806.678C-449.09 852.923 -424.609 895.898 -380.888 923.93C-350.281 943.536 -317.983 953.058 -281.65 952.976C-231.031 952.865 -180.809 937.369 -130.338 939.956C-118.657 940.552 -106.426 942.47 -96.6371 949.326C-88.5096 955.034 -82.7892 963.616 -76.3433 970.763C-70.6031 977.123 -63.939 978.278 -56.4243 976.773C-33.5053 972.176 -9.22262 949.902 12.5109 938.597C17.1012 936.206 23.0378 933.337 26.5071 929.433C28.9824 926.645 28.0749 924.078 27.1991 921.868C20.4005 904.725 15.3987 886.066 5.54656 870.17C-5.74702 851.945 -22.6686 842.209 -42.6194 839.026C-76.8213 833.588 -115.289 844.501 -150.708 849.233C-185.674 853.875 -221.026 858.066 -256.368 856.725C-286.28 855.606 -315.762 849.956 -343.019 837.357C-377.172 821.544 -402.024 792.672 -421.452 761.738C-469.211 685.64 -495.41 596.214 -542.572 518.586C-566.035 479.96 -592.135 442.542 -617.937 405.446C-640.029 373.678 -662.957 341.837 -689.23 313.742C-696.625 305.83 -706.016 295.003 -717.521 293.127C-723.104 292.217 -727.826 294.19 -732.2 296.53C-738.694 300.005 -744.658 305.271 -746.971 312.386C-754.641 335.923 -726.692 365.233 -712.702 381.593" fill="#137D9F"/>
<path d="M-677.908 308.051C-649.623 340.688 -624.426 375.834 -599.947 411.303C-583.864 434.61 -568.054 458.138 -552.212 481.619C-528.041 517.435 -508.231 555.69 -489.662 594.596C-469.507 636.819 -450.365 680.032 -427.723 720.748C-402.028 766.953 -370.899 808.948 -319.93 829.333C-279.403 845.519 -235.333 847.565 -192.195 845.103C-165.383 843.561 -138.733 840.292 -112.141 836.782C-87.3391 833.505 -62.0832 827.911 -36.9536 830.248C-3.15598 833.386 18.7367 853.546 41.7211 875.807C50.2382 884.057 61.2793 888.115 72.5634 890.159C99.6062 895.047 128.524 891.933 156.093 887.984C159.695 887.47 163.42 886.905 167.222 886.162C174.792 884.681 182.237 882.613 189.488 879.981C190.016 879.814 190.534 879.615 191.051 879.411C196.086 877.4 202.106 875.155 205.726 870.802C207.87 868.23 206.894 865.431 205.531 862.795C179.515 813.275 149.153 762.431 93.1925 746.092C59.9292 736.372 24.7418 744.734 -9.26702 749.866C-48.2792 755.783 -87.4704 761.573 -126.609 765.191C-174.634 769.635 -224.82 772.014 -272.432 761.363C-322.287 750.206 -356.49 720.469 -385.942 680.665C-423.666 629.68 -451.315 571.265 -481.666 515.258C-511.908 459.45 -547.66 407.426 -583.911 355.514C-605.707 324.306 -628.151 292.643 -654.075 265.382C-661.631 257.438 -669.89 249.784 -680.007 244.899C-687.303 241.355 -695.948 238.288 -704.15 238.891C-709.379 239.293 -716.066 243.102 -717.823 248.363C-721.137 258.255 -711.968 269.016 -706.287 276.173C-697.454 287.288 -687.535 297.626 -677.893 308.046" fill="#0ABBAB"/>
<path d="M-654.153 253.111C-626.74 281.593 -603.093 313.282 -580.339 345.436C-564.624 367.685 -549.221 390.268 -533.758 412.712C-508.721 449.054 -487.375 487.648 -466.141 526.288C-442.947 568.483 -419.179 610.747 -391.525 649.905C-375.255 672.939 -357.231 695.369 -335.694 713.983C-313.7 732.986 -286.528 743.107 -258.273 748.668C-200.727 759.983 -140.331 755.179 -82.4718 748.841C-51.4728 745.443 -20.6008 741.016 10.2476 736.477C39.0167 732.246 68.1232 725.77 97.2451 730.216C143.421 737.221 178.433 768.073 211.44 798.611C222.633 808.976 235.514 816.843 249.17 823.149C279.124 836.984 309.065 846.026 342.458 847.396C346.658 847.65 350.867 847.629 355.065 847.329C362.341 846.649 369.827 845.377 376.419 841.759C376.805 841.555 377.177 841.326 377.532 841.101C382.224 838.141 383.643 834.711 383.606 830.441C383.582 827.696 381.584 824.605 379.157 821.524C334.677 765.075 287.954 700.053 218.031 676.319C181.933 664.066 145.753 672.191 108.66 678.265C62.6095 685.826 16.4436 693.388 -29.7612 699.132C-88.8906 706.483 -150.332 712.853 -209.892 705.186C-238.329 701.517 -266.783 693.113 -290.171 676.026C-310.192 661.389 -327.734 642.813 -343.559 624.031C-384.301 575.662 -417.015 520.83 -450.418 466.937C-482.393 415.332 -517.497 366.195 -553.118 317.15C-573.084 289.661 -593.395 261.616 -616.916 237.712C-624.184 230.32 -632.231 223.515 -641.291 218.099C-652.375 211.475 -664.968 203.909 -677.425 202.451C-682.456 201.866 -690.353 201.084 -693.988 205.152C-702.363 214.497 -661.145 246.263 -654.125 253.161" fill="#B2CD0D"/>
<path d="M-620.009 221.381C-592.858 246.193 -569.922 274.789 -548.007 304.106C-531.955 325.563 -516.252 347.513 -500.631 369.262C-474.459 405.694 -451.584 444.682 -427.686 482.652C-400.716 525.51 -371.62 567.449 -338.895 605.952C-320.591 627.476 -300.846 648.726 -277.967 665.768C-251.644 685.368 -219.966 694.2 -187.657 697.406C-119.311 704.179 -49.1561 694.977 18.489 685.42C54.0082 680.397 89.4159 674.576 124.796 668.723C152.114 664.21 180.642 656.735 208.465 659.204C263.287 664.076 308.28 701.895 347.444 736.944C359.791 748.003 372.736 758.383 386.091 768.263C411.339 786.952 439.75 812.052 471.795 816.852C474.849 817.319 478.079 817.725 480.956 817.439C487.044 816.88 490.742 813.47 491.868 809.472C491.972 809.143 492.063 808.813 492.133 808.472C492.959 803.612 490.034 797.221 487.811 793.19C485.751 789.64 483.283 786.336 480.464 783.344C425.065 723.188 359.204 659.346 280.511 635.362C245.301 624.631 211.856 631.286 175.596 637.748C129.682 645.927 83.8846 655.21 37.9855 662.869C-20.9298 672.701 -82.2737 682.162 -142.227 676.347C-200.636 670.678 -244.11 640.403 -280.228 596.494C-319.029 549.319 -348.572 495.033 -381.182 443.232C-412.495 393.558 -449.23 348.424 -485.992 302.842C-506.405 277.535 -527.373 251.829 -551.174 230.334C-559.031 223.313 -567.629 217.162 -576.816 211.99C-593.991 202.198 -612.288 193.123 -631.521 188.323C-639.653 186.292 -648.69 184.007 -657.076 184.379C-666.813 184.811 -651.196 196.479 -649.248 198.037C-639.504 205.827 -629.447 213.194 -620.03 221.387" fill="#EAE9F9"/>
<path d="M-558.761 208.897C-528.319 230.681 -501.418 256.319 -476.862 284.219C-459.246 304.242 -442.942 325.982 -426.372 346.613C-398.523 381.262 -377.392 421.844 -355.273 460.805C-330.348 504.713 -304.38 549.038 -273.034 588.324C-255.612 610.145 -236.982 630.904 -212.484 645.407C-185.813 661.194 -156.165 668.332 -125.368 669.943C-61.992 673.218 2.04059 660.573 63.9139 648.26C96.3493 641.823 128.681 634.857 161.128 628.473C188.459 623.099 217.628 615.122 245.655 616.321C301.106 618.662 354.334 650.332 400.082 678.764C415.525 688.375 431.214 697.655 446.848 706.876C483.996 728.756 522.586 761.906 568.073 762.147C572.728 762.169 577.634 761.935 582.157 760.563C589.93 758.191 598.386 751.937 600.389 743.504C600.532 742.944 600.637 742.374 600.711 741.801C601.683 733.12 595.795 725.915 590.815 719.445C587.778 715.5 583.433 711.837 579.43 708.904C535.556 676.781 485.465 650.555 435.208 628.635C382.221 605.489 326.635 585.43 270.15 574.955C250.892 571.393 230.838 568.609 211.025 569.709C192.585 570.736 173.948 575.832 156.058 580.2C115.128 590.199 74.7873 602.768 34.2586 613.937C-16.7975 628.046 -70.4915 642.587 -124.001 640.634C-150.832 639.655 -177.459 632.781 -200.555 618.913C-221.912 606.083 -236.603 584.767 -248.077 563.29C-274.872 513.168 -288.041 456.566 -308.098 403.367C-318.099 376.834 -329.637 350.634 -345.074 326.769C-359.267 304.822 -377.558 285.897 -395.774 267.434C-418.805 244.074 -443.486 221.395 -470.531 203.485C-479.604 197.539 -489.298 192.593 -499.442 188.734C-522.465 179.868 -546.857 172.018 -571.693 170.775C-580.67 170.326 -590.355 170.703 -598.877 172.362C-611.245 174.765 -596.136 185.116 -592.443 187.589C-581.407 194.98 -569.767 201.433 -558.766 208.881" fill="#FE9572"/>
<path d="M-493.844 171.095C-457.159 188.356 -422.699 209.335 -392.379 235.694C-372.47 253.001 -352.307 272.591 -338.045 294.456C-313.925 331.435 -302.717 377.112 -290.358 420.03C-276.733 467.353 -263.387 515.616 -241.229 558.845C-229.269 582.177 -212.871 602.014 -188.346 613.555C-165.316 624.402 -140.236 628.653 -114.883 627.932C-61.5194 626.405 -9.16289 608.597 41.1062 592.142C68.1107 583.299 95.0276 574.159 122.278 566.097C146.806 558.838 172.773 550.525 198.43 548.88C269.877 544.319 344.996 567.652 412.287 588.221C436.019 595.481 459.947 602.591 483.569 610.104C521.641 622.214 558.884 637.237 596.906 649.806C629.773 660.673 664.306 668.86 699.023 665.264C706.518 664.492 714.52 663.336 721.194 660.406C730.552 656.301 743.808 648.238 741.569 635.531C741.446 634.802 741.262 634.086 741.008 633.392C736.686 621.512 721.674 614.269 711.431 608.743C704.95 605.309 698.28 602.237 691.463 599.523C621.288 571.002 545.704 552.057 471.154 535.775C394.971 519.194 317.233 505.364 239.789 500.248C196.659 497.4 156.634 498.806 115.137 512.306C80.2603 523.67 46.733 538.956 13.048 553.151C-28.7081 570.751 -73.2012 589.636 -119.305 590.451C-143.797 590.884 -168.694 584.688 -189.846 572.282C-211.199 559.789 -223.31 537.141 -230.151 514.762C-246.412 461.576 -244.47 402.332 -251.516 346.255C-254.855 319.675 -259.562 292.848 -269.519 267.856C-279.193 243.578 -294.878 225.102 -312.899 206.841C-337.41 181.981 -364.472 158.741 -393.966 140.661C-403.914 134.583 -414.502 129.611 -425.541 125.836C-454.837 115.775 -487.08 108.838 -518.284 115.924C-528.14 118.16 -539.262 122.132 -546.697 129.141C-567.748 148.977 -505.219 166.041 -493.844 171.095Z" fill="#F75F68"/>
<path d="M-439.43 96.3204C-397.526 114.293 -357.032 135.531 -322.353 164.5C-301.435 181.98 -279.327 202.605 -267.405 226.793C-246.947 268.285 -246.225 319.999 -243.432 366.824C-240.422 417.321 -241.846 474.021 -222.002 519.649C-212.195 542.227 -197.078 558.211 -172.993 567.362C-151.781 575.365 -128.873 577.867 -106.409 574.638C-63.032 568.546 -22.7039 546.931 15.9005 527.422C56.4024 506.985 97.9595 484.56 142.906 475.716C174.767 469.443 208.829 472.036 240.977 474.137C289.436 477.307 337.729 483.39 385.663 490.512C416.265 495.052 446.999 499.787 477.481 505.112C538.08 515.696 598.255 529.33 658.693 541.281C703.327 550.107 750.868 560.043 796.397 555.564C802.72 554.943 809.564 553.779 815.119 550.718C826.848 544.235 816.735 529.667 810.994 524.11C810.141 523.321 809.251 522.58 808.318 521.894C792.475 509.81 771.912 503.252 753.131 497.722C744.369 495.132 735.288 492.806 726.338 490.594C641.316 469.562 554.093 454.719 467.061 442.491C386.632 431.188 305.137 421.316 224.06 419.551C183.896 418.677 146.844 419.916 109.138 434.979C78.3049 447.297 49.4479 464.152 20.4377 480.013C-15.8652 499.862 -54.7549 521.175 -96.8498 524.738C-119.528 526.671 -143.461 521.964 -163.591 511.323C-185.955 499.504 -197.783 477.591 -203.883 454.743C-218.221 401.006 -211.219 340.372 -211.315 283.289C-211.355 255.028 -212.049 226.227 -218.266 198.546C-223.679 174.358 -234.204 155.474 -251.024 137.844C-274.301 113.436 -301.09 92.62 -330.515 76.0799C-340.823 70.3685 -351.49 65.3254 -362.449 60.9821C-397.507 46.9375 -436.77 37.2226 -475.034 39.6536C-484.682 40.2726 -497.32 42.0938 -504.61 48.9997C-527.233 70.4277 -450.612 91.7196 -439.425 96.3187" fill="#7158D1"/>
<path d="M-53.4609 -154.679C-15.1678 -143.39 3.60932 -116.262 20.9162 -82.4105C42.0753 -41.0672 66.5674 -1.73597 98.3767 31.8414C119.282 53.9407 146.372 81.3713 176.616 90.658C211.564 101.384 251.111 78.2375 278.686 59.9757C319.698 32.8152 360.034 -2.31663 392.932 -39.8232C405.844 -54.5438 413.263 -62.6073 432.442 -56.2108C435.159 -55.328 438.683 -53.9517 441.227 -56.4974C443.186 -58.4536 444.054 -62.2744 444.941 -65.8691C446.826 -73.7931 449.335 -81.56 452.438 -89.0965C455.276 -95.8912 458.843 -104.474 456.487 -111.951C454.941 -116.86 451.445 -119.555 448.602 -121.494C443.641 -124.875 431.653 -135.809 425.188 -130.451C419.724 -125.919 415.665 -118.693 410.96 -112.899C398.603 -97.6402 384.774 -83.3318 370.822 -69.8079C323.958 -24.3662 254.107 34.6348 183.634 7.51662C134.299 -11.4751 94.9588 -44.7146 70.336 -90.6817C53.8445 -121.474 39.656 -152.888 13.0367 -176.381C3.06696 -185.174 -8.49642 -191.246 -21.2039 -193.844C-34.167 -196.484 -51.5254 -193.868 -61.3879 -183.846C-69.9535 -175.12 -64.6806 -158.569 -53.4609 -154.679Z" fill="#0ABBAB"/>
<path d="M-110.298 -125.166C-118.172 -122.523 -120.854 -112.788 -115.97 -106.685C-115.047 -105.584 -113.897 -104.693 -112.598 -104.072C-90.1209 -93.7419 -69.1879 -77.9817 -54.6533 -58.1747C-48.2496 -49.4432 -42.384 -40.1832 -36.6919 -30.8915C-25.9361 -13.3439 -14.9944 4.26734 -4.55987 21.9976C7.0369 41.6884 18.415 61.7376 30.3487 81.2009C35.59 89.7197 41.0055 98.2649 46.4842 106.616C63.5589 132.494 82.4378 157.578 104.122 179.538C120.108 195.739 137.14 208.682 161.423 206.057C185.927 203.402 209.673 190.052 229.992 177.568C286.221 143.005 337.102 95.8817 387.806 52.7443C396.823 45.0765 406.824 34.8928 417.919 32.5611C427.177 30.6176 437.083 32.5735 447.036 34.1724C449.129 34.5028 451.403 34.8053 453.393 34.4101C454.866 34.1811 456.154 33.2909 456.883 31.9964C458.15 29.7393 457.935 25.8249 457.535 21.9975C456.884 15.8354 456.159 9.64425 455.414 3.48301C455.16 1.323 454.898 -0.805576 454.676 -2.90052C453.821 -10.804 452.388 -19.4866 447.728 -26.18C444.944 -30.0915 441.281 -33.2985 437.033 -35.5452C428.523 -40.343 415.25 -49.0984 404.981 -43.2992C397.271 -38.9428 390.806 -31.9863 384.288 -25.9157C369.642 -12.2837 354.578 0.999403 339.721 14.3564C322.033 30.2664 303.908 46.0303 285.148 60.4374C256.529 82.3954 221.707 108.079 184.592 112.953C152.136 117.186 123.393 95.9561 100.337 76.5583C69.9305 50.9848 46.7022 18.4846 26.6518 -16.0878C17.364 -32.095 8.99403 -48.9477 -0.340618 -64.7842C-8.43754 -78.5336 -17.6492 -91.8562 -28.7346 -102.951C-37.2476 -111.518 -47.4461 -118.237 -58.6883 -122.687C-74.0639 -128.813 -94.4121 -130.5 -110.298 -125.166Z" fill="#FFD300"/>
<path d="M-167.814 -79.1332C-173.416 -77.9475 -183.02 -74.3958 -180.432 -66.3668C-180.077 -65.4221 -179.467 -64.5949 -178.668 -63.9766C-159.592 -47.0716 -136.833 -35.2276 -119.982 -15.903C-112.219 -6.99836 -104.888 2.49397 -97.8599 12.0175C-84.6226 30.0555 -71.5192 48.7553 -59.265 67.3058C-45.5345 88.0883 -33.3557 110.454 -21.051 132.391C-15.4382 142.39 -9.82783 152.419 -4.14632 162.372C13.2003 192.741 31.4653 222.924 52.542 250.624C67.1872 269.88 83.7809 293.968 108.109 301.955C133.28 310.231 159.89 298.249 181.951 287.311C257.222 249.969 319.598 189.415 392.064 146.365C406.434 137.832 422.33 127.042 439.05 126.064C452.795 125.265 467.219 128.633 481.048 129.885C483.705 130.125 486.535 130.165 488.94 129.546C490.632 129.112 492.047 128.226 492.728 126.518C493.661 124.199 492.943 120.338 491.753 116.523C489.751 110.168 487.378 103.877 484.777 97.7049C483.872 95.5476 482.906 93.4209 481.983 91.3556C478.519 83.5917 474.332 75.5456 468.389 69.4592C464.604 65.7129 460.192 62.6486 455.356 60.3973C442.095 54.2728 427.69 47.4895 412.905 52.9346C402.497 56.7919 393.438 63.8186 384.475 70.1379C366.802 82.5986 349.596 95.4913 332.821 109.093C312.943 125.194 293.143 141.804 272.905 157.364C240.768 182.062 204.081 210.097 164.155 221.101C123.902 232.196 97.6193 205.018 72.5724 178.21C38.0211 141.228 10.8322 97.7721 -14.6051 53.7116C-25.2971 35.2014 -36.2956 16.7705 -47.5572 -1.31109C-56.476 -15.6396 -65.9172 -29.9536 -77.0005 -42.2631C-85.1286 -51.3001 -94.6808 -58.9523 -105.288 -64.9138C-123.263 -75.0233 -148.249 -83.3466 -167.814 -79.1332Z" fill="#FE9572"/>
<path d="M-232.643 -43.5493C-240.467 -44.1794 -251.394 -44.8847 -257.844 -39.8625C-258.34 -39.519 -258.615 -38.9384 -258.566 -38.3391C-256.987 -29.6382 -241.494 -22.8622 -234.713 -18.4843C-221.8 -10.1788 -208.545 -2.02615 -196.826 7.76074C-186.583 16.3064 -176.573 25.4461 -167.154 34.8586C-148.905 53.1883 -132.113 72.9045 -116.93 93.8304C-101.443 115.134 -88.1054 136.236 -77.3205 160.386C-72.5843 170.996 -68.1262 181.902 -63.7885 192.742C-50.7516 225.294 -38.5117 258.728 -21.9201 289.328C-9.45446 312.307 5.833 337.236 26.1413 354.598C47.7468 373.072 75.243 377.715 101.663 372.458C197.457 353.446 274.79 269.725 364.482 230.93C394.553 217.923 427.241 215.591 459.517 218.96C490.896 222.23 523.038 232.167 554.782 233.529C558.508 233.685 561.641 233.445 563.448 232.378C564.71 231.627 565.154 230.33 564.093 227.957C562.848 225.173 559.462 220.964 555.688 216.652C549.545 209.632 543.163 202.699 536.76 195.923C534.569 193.611 532.426 191.394 530.352 189.264C523.232 181.887 515.919 174.084 507.687 168.307C502.547 164.621 497.034 161.478 491.244 158.926C472.891 151.072 453.355 143.73 433.072 148.095C399.065 155.412 364.107 178.672 335.97 197.312C313.786 212.012 291.964 227.882 269.943 242.987C233.304 268.072 194.395 294.467 151.77 308.595C132.423 315.008 112.519 316.592 93.9683 306.985C76.1041 297.733 62.7692 280.738 50.1164 265.796C12.3175 221.155 -18.3528 170.839 -49.1065 120.931C-62.1995 99.6478 -76.6545 79.1874 -90.6208 58.4516C-101.15 42.7997 -111.924 27.034 -124.091 12.9336C-132.62 2.99571 -142.331 -5.86836 -153.012 -13.4633C-176.197 -29.8896 -204.594 -41.2893 -232.643 -43.5493Z" fill="#EAE9F9"/>
<path d="M-318.046 -25.1869C-329.024 -27.1922 -341.366 -28.9707 -352.696 -26.8195C-353.758 -26.6328 -354.797 -26.3385 -355.799 -25.9407C-365.962 -22.2763 -339.4 -10.2696 -336.966 -9.10336C-321.561 -1.67423 -305.603 4.90986 -290.747 13.2126C-277.73 20.4908 -264.795 28.3737 -252.513 36.7642C-229.143 52.739 -207.122 71.2348 -188.053 92.0838C-168.984 112.933 -157.886 134.945 -151.056 162.214C-148.109 173.961 -145.901 186.225 -144.039 198.291C-138.376 235.107 -135.951 273.181 -128.882 309.647C-123.792 335.942 -115.75 361.527 -102.945 385.437C-88.6064 412.227 -67.7512 429.915 -38.9236 435.808C17.8598 447.369 76.9193 415.139 126.578 386.444C172.267 360.052 219.231 322.973 271.252 310.481C334.706 295.243 406.854 306.063 470.086 315.645C507.446 321.303 544.793 328.384 582.067 335.216C611.389 340.599 641.495 347.477 670.872 349.07C676.084 349.355 681.993 349.844 687.097 348.323C689.489 347.61 690.679 346.089 689.214 343.448C686.798 339.087 682.348 335.43 678.664 332.059C670.136 324.292 660.702 317.123 651.208 310.384C647.816 307.98 644.478 305.692 641.205 303.517C629.947 296.026 618.249 288.852 606.043 283.222C596.702 278.941 587.125 275.194 577.357 272.001C531.976 257.102 484.655 246.831 437.268 244.32C411.561 242.949 384.987 243.547 359.544 249.478C336.677 254.813 314.902 265.718 294.672 276.982C271.805 289.719 249.515 304.271 227.184 318.222C189.638 341.689 150.913 365.303 108.253 378.475C87.9593 384.741 66.1242 387.261 45.5693 380.858C23.4407 373.938 7.76375 359.047 -5.82871 341.612C-44.5542 291.914 -67.9184 232.51 -92.8473 174.003C-104.933 145.647 -118.712 119.971 -137.192 95.4053C-150.165 78.1863 -164.144 61.2956 -179.414 46.2764C-190.003 35.9101 -201.443 26.4454 -213.615 17.9813C-244.738 -3.71247 -281.199 -18.4639 -318.046 -25.1869Z" fill="#1DAACC"/>
<path d="M-212.617 176.849C-201.291 227.112 -207.47 282.171 -208.422 334.224C-209.354 385.252 -209.529 451.866 -169.189 485.482C-134.481 514.4 -78.1961 506.735 -36.5509 490.652C6.38178 474.065 45.2257 448.574 85.221 426.192C103.85 415.768 122.815 405.736 142.738 397.99C165.278 389.233 187.466 386.215 211.569 385.672C300.511 383.701 390.583 397.082 477.964 411.075C545.296 421.867 612.501 434.737 679.743 446.825C705.465 451.456 731.203 456.081 757.101 459.693C772.603 461.839 789.322 464.805 804.915 462.693C808.868 462.162 811.779 460.802 811.307 458.364C808.957 446.223 789.141 434.929 778.605 428.456C760.815 417.523 740.632 410.065 720.676 403.531C599.998 364.018 468.944 342.617 341.459 336.471C301.468 334.546 255.985 331.255 217.339 344.164C185.139 354.922 155.57 372.757 126.436 389.847C63.1974 426.948 -49.9964 494.251 -104.887 417.455C-134.094 376.587 -143.905 321.697 -152.06 270.823C-159.74 222.971 -162.141 167.963 -185.403 125.246C-203.925 91.2287 -239.317 63.1278 -272.028 42.7601C-309.872 19.2061 -353.762 4.89561 -397.971 -0.950669C-410.322 -2.58157 -424.304 -3.948 -436.544 -0.52604C-457.364 5.29148 -435.245 16.7821 -426.435 20.5015C-409.2 27.7716 -390.789 32.2457 -373.515 39.1393C-330.8 56.1753 -289.365 77.7945 -255.501 108.611C-233.917 128.264 -219.07 148.216 -212.617 176.849Z" fill="#EAE9F9"/>
</g>
</g>
<defs>
<clipPath id="clip0_224_852">
<rect x="-582" y="271.483" width="903.542" height="676" rx="338" transform="rotate(-17.4855 -582 271.483)" fill="white"/>
</clipPath>
</defs>
</svg>
