<svg width="13" height="12" viewBox="0 0 13 12" fill="none" xmlns="http://www.w3.org/2000/svg">
<path fill-rule="evenodd" clip-rule="evenodd" d="M6.30675 0.00152925C5.68276 -0.0025939 5.10921 0.34975 4.83123 0.907078L4.57342 1.42271C4.47182 1.46044 4.37187 1.50176 4.27299 1.54629L3.72646 1.36411C3.13604 1.16703 2.48072 1.32328 2.04321 1.76788C1.61201 2.20613 1.46398 2.85133 1.65862 3.43303L1.84079 3.97849C1.79531 4.07806 1.75275 4.17867 1.71401 4.28105L1.20051 4.5378C0.643767 4.81549 0.290401 5.38849 0.294966 6.01224C0.299466 6.62721 0.650775 7.1882 1.19945 7.46219L1.71614 7.72213C1.75402 7.82377 1.79521 7.92375 1.83973 8.02256L1.65862 8.56802C1.46172 9.15788 1.61748 9.81262 2.06132 10.2502C2.49923 10.682 3.14447 10.8301 3.72646 10.6359L4.27192 10.4548C4.37137 10.5001 4.47223 10.5417 4.57448 10.5805L4.83123 11.0929C5.10921 11.6503 5.68276 12.0033 6.30675 11.9985C6.9216 11.9943 7.4828 11.6421 7.75669 11.0929L8.01344 10.5794C8.11632 10.5413 8.21804 10.4999 8.31813 10.4548L8.86146 10.6359C9.44345 10.8301 10.0887 10.6821 10.5266 10.2502C10.9707 9.81235 11.1267 9.15706 10.9293 8.56696L10.7482 8.0215C10.7935 7.92234 10.8353 7.82193 10.8739 7.72L11.3874 7.46219C11.9365 7.18835 12.2885 6.62748 12.293 6.01224C12.2975 5.38847 11.9442 4.81549 11.3874 4.5378L10.8718 4.27998C10.8339 4.17773 10.7928 4.07693 10.7482 3.97742L10.9293 3.43303V3.43196C11.1234 2.85053 10.9757 2.20587 10.5447 1.76788C10.1072 1.3232 9.45188 1.16709 8.86146 1.36411L8.31493 1.54629C8.21576 1.50114 8.11539 1.45913 8.01344 1.42058L7.75669 0.907078C7.48281 0.357914 6.92163 0.00633274 6.30675 0.00152925ZM6.29822 1.09245C6.50337 1.09404 6.68872 1.21037 6.78083 1.39501L7.12707 2.08749C7.15957 2.15262 7.20479 2.21059 7.26004 2.25798C7.3153 2.30536 7.37948 2.34121 7.4488 2.36341C7.65432 2.42897 7.8539 2.51123 8.0454 2.61058C8.11005 2.64422 8.18078 2.66457 8.25342 2.67043C8.32606 2.67628 8.39914 2.66752 8.46834 2.64467L9.20557 2.39964H9.20663C9.4053 2.33325 9.6211 2.3852 9.76701 2.53281C9.91072 2.67897 9.95926 2.89217 9.89378 3.08785V3.08892L9.64982 3.82295C9.62708 3.89154 9.61819 3.96397 9.62368 4.03603C9.62917 4.10808 9.64892 4.17833 9.68178 4.24269C9.77991 4.43463 9.86135 4.63465 9.92575 4.84036C9.94769 4.91036 9.98354 4.97522 10.0311 5.03105C10.0787 5.08688 10.1371 5.13254 10.2027 5.16529L10.8995 5.51366C11.0869 5.60705 11.2036 5.79596 11.202 6.00372C11.2005 6.20844 11.0842 6.39419 10.8995 6.48633H10.8984L10.2059 6.83363C10.141 6.86625 10.0832 6.91151 10.036 6.96676C9.98884 7.02201 9.95315 7.08614 9.93107 7.15537C9.86512 7.36091 9.78253 7.56048 9.68285 7.75196C9.64905 7.81675 9.62862 7.88767 9.62277 7.96051C9.61691 8.03335 9.62575 8.10662 9.64875 8.17597L9.89378 8.91213C9.96022 9.11066 9.90978 9.32648 9.76168 9.47251C9.61573 9.6164 9.4024 9.6657 9.20663 9.60035H9.20557L8.47154 9.35638C8.40279 9.3335 8.33017 9.32453 8.25792 9.33002C8.18567 9.33551 8.11523 9.35534 8.05073 9.38834C7.85853 9.48689 7.65913 9.56872 7.45306 9.63337C7.38306 9.65532 7.3182 9.69116 7.26237 9.73876C7.20654 9.78635 7.16088 9.84472 7.12813 9.91037L6.78083 10.605C6.68872 10.7897 6.5034 10.9059 6.29822 10.9075C6.08991 10.9092 5.90061 10.7925 5.8071 10.605L5.46086 9.91356C5.42835 9.84843 5.38314 9.79046 5.32788 9.74307C5.27263 9.69569 5.20845 9.65984 5.13912 9.63764C4.93326 9.57166 4.73323 9.48919 4.54146 9.38941C4.47667 9.35562 4.40575 9.33519 4.33291 9.32933C4.26008 9.32348 4.1868 9.33231 4.11745 9.35532L3.38129 9.60035C3.18552 9.6657 2.9722 9.61682 2.82624 9.47251C2.67813 9.32655 2.62771 9.11068 2.69414 8.91213V8.91107L2.9381 8.17704C2.96083 8.10822 2.96961 8.03556 2.96394 7.96331C2.95827 7.89106 2.93826 7.82066 2.90508 7.75622C2.80667 7.5647 2.72479 7.36504 2.66005 7.15963C2.63822 7.09001 2.60265 7.02547 2.55543 6.96984C2.50822 6.91421 2.45033 6.86862 2.38519 6.83576L1.68951 6.48633H1.68845C1.50369 6.39417 1.38738 6.20854 1.38589 6.00372C1.38437 5.79596 1.50106 5.60711 1.68845 5.51366L2.38092 5.16742C2.44606 5.13491 2.50402 5.0897 2.55141 5.03445C2.5988 4.97919 2.63465 4.91501 2.65685 4.84568C2.7228 4.64014 2.8054 4.44057 2.90508 4.24909C2.93872 4.18444 2.95907 4.11371 2.96493 4.04106C2.97079 3.96842 2.96203 3.89534 2.93917 3.82614L2.69414 3.08892V3.08785C2.62867 2.89221 2.67719 2.67887 2.82091 2.53281C2.96683 2.38458 3.18263 2.33346 3.38129 2.39964L4.11638 2.64467C4.18513 2.66755 4.25775 2.67652 4.33001 2.67103C4.40226 2.66554 4.47269 2.64571 4.5372 2.61271C4.72882 2.51458 4.9284 2.43314 5.13379 2.36874C5.2038 2.34679 5.26865 2.31095 5.32448 2.26336C5.38032 2.21576 5.42597 2.1574 5.45873 2.09175L5.8071 1.39501C5.90061 1.20741 6.08991 1.09082 6.29822 1.09245ZM6.29609 3.27322C4.79631 3.27322 3.5656 4.49968 3.5656 5.99946C3.56559 7.49924 4.7963 8.72889 6.29609 8.72889C7.79589 8.72889 9.02127 7.49924 9.02126 5.99946C9.02126 4.49968 7.79588 3.27322 6.29609 3.27322ZM6.29609 4.36414C7.2063 4.36414 7.93034 5.08925 7.93034 5.99946C7.93035 6.90967 7.20631 7.63797 6.29609 7.63797C5.38588 7.63797 4.65651 6.90967 4.65652 5.99946C4.65652 5.08925 5.38589 4.36414 6.29609 4.36414Z" fill="white"/>
</svg>
