<svg width="11" height="14" viewBox="0 0 11 14" fill="none" xmlns="http://www.w3.org/2000/svg">
<path d="M8.70866 7.49748C8.63238 7.46714 8.55086 7.45211 8.46877 7.45326C8.38669 7.45442 8.30563 7.47173 8.23023 7.50421C8.15483 7.53668 8.08657 7.5837 8.02934 7.64256C7.97211 7.70142 7.92703 7.77098 7.89668 7.84726C7.86633 7.92354 7.85131 8.00505 7.85246 8.08714C7.85361 8.16923 7.87093 8.25029 7.90341 8.32568C7.93588 8.40108 7.9829 8.46935 8.04176 8.52658C8.10062 8.58381 8.17018 8.62888 8.24646 8.65923C9.15837 9.02149 9.72675 9.58363 9.72675 10.127C9.72675 11.014 8.19024 12.0008 5.97918 12.0008C3.76811 12.0008 2.23161 11.014 2.23161 10.127C2.23161 9.58363 2.79999 9.02149 3.7119 8.65923C3.86596 8.59794 3.98936 8.47796 4.05495 8.32568C4.12055 8.17341 4.12296 8.00131 4.06167 7.84726C4.00038 7.6932 3.8804 7.5698 3.72813 7.50421C3.57585 7.43861 3.40376 7.43619 3.2497 7.49748C1.83187 8.05962 0.982422 9.04023 0.982422 10.127C0.982422 11.8759 3.17475 13.25 5.97918 13.25C8.78361 13.25 10.9759 11.8759 10.9759 10.127C10.9759 9.04023 10.1265 8.05962 8.70866 7.49748ZM5.35458 5.66742V10.127C5.35458 10.2927 5.42039 10.4515 5.53752 10.5687C5.65466 10.6858 5.81353 10.7516 5.97918 10.7516C6.14483 10.7516 6.3037 10.6858 6.42083 10.5687C6.53797 10.4515 6.60377 10.2927 6.60377 10.127V5.66742C7.19255 5.5154 7.70568 5.15386 8.04696 4.65058C8.38825 4.14729 8.53427 3.53681 8.45764 2.93357C8.38102 2.33033 8.08702 1.77574 7.63075 1.37376C7.17448 0.971776 6.58727 0.75 5.97918 0.75C5.37109 0.75 4.78388 0.971776 4.32761 1.37376C3.87133 1.77574 3.57733 2.33033 3.50071 2.93357C3.42409 3.53681 3.57011 4.14729 3.91139 4.65058C4.25268 5.15386 4.7658 5.5154 5.35458 5.66742ZM5.97918 2.0073C6.22624 2.0073 6.46776 2.08056 6.67319 2.21782C6.87862 2.35509 7.03873 2.55018 7.13328 2.77844C7.22783 3.0067 7.25256 3.25787 7.20436 3.50019C7.15616 3.74251 7.03719 3.9651 6.86249 4.1398C6.68779 4.3145 6.4652 4.43347 6.22288 4.48167C5.98056 4.52987 5.72939 4.50514 5.50113 4.41059C5.27288 4.31604 5.07778 4.15593 4.94052 3.9505C4.80325 3.74507 4.72999 3.50355 4.72999 3.25649C4.72999 2.92518 4.8616 2.60745 5.09587 2.37318C5.33014 2.13891 5.64787 2.0073 5.97918 2.0073Z" fill="white"/>
</svg>
