<svg width="15" height="14" viewBox="0 0 15 14" fill="none" xmlns="http://www.w3.org/2000/svg">
<mask id="path-1-inside-1_9_2133" fill="white">
<path d="M7.47413 0.445888C7.4388 0.448542 7.40464 0.459186 7.374 0.476979L0.116367 4.69155C-0.0413078 4.78311 -0.0380385 5.01174 0.121853 5.09938L1.87385 6.05952V8.17001H1.40568C1.27568 8.17001 1.17068 8.27502 1.17068 8.40501V11.4199L0.724903 12.4019C0.708827 12.4333 0.70204 12.4746 0.70204 12.498V13.3205C0.70204 13.6327 1.17067 13.6327 1.17067 13.3205V12.7339H1.87339V13.3205C1.87339 13.6328 2.34157 13.6328 2.34157 13.3205V12.7339H3.04383V13.3205C3.04383 13.6328 3.51201 13.6328 3.51201 13.3205V12.498C3.51369 12.4637 3.50378 12.4319 3.49144 12.4038L3.04383 11.4002V8.40501C3.04383 8.27573 2.93994 8.17001 2.81066 8.17001H2.34203V6.31602L3.50835 6.95566V9.10637C3.50835 9.40518 3.64932 9.68138 3.86817 9.90832C4.08702 10.1353 4.3853 10.3234 4.74417 10.4803C5.46192 10.7941 6.42389 10.98 7.48967 10.98C8.55545 10.98 9.51971 10.7941 10.2375 10.4803C10.5963 10.3234 10.8946 10.1353 11.1135 9.90832C11.3323 9.68138 11.4728 9.40518 11.4728 9.10637V6.95657L14.8616 5.09938C15.0215 5.01175 15.0225 4.78312 14.8648 4.69155L7.609 0.476977C7.56822 0.453291 7.52116 0.44241 7.47413 0.445888ZM7.4915 0.950191L14.2704 4.88678L7.4915 8.60527L2.78415 6.02386L6.85096 5.0564C6.96047 5.30228 7.20676 5.47612 7.4915 5.47612C7.87658 5.47612 8.19331 5.15939 8.19331 4.7743C8.19331 4.38922 7.87658 4.07294 7.4915 4.07294C7.17349 4.07294 6.90516 4.28974 6.82033 4.58182L2.17424 5.68918L0.710733 4.88678L7.4915 0.950191ZM7.4915 4.54113C7.62356 4.54113 7.72468 4.64224 7.72468 4.7743C7.72468 4.90636 7.62356 5.00931 7.4915 5.00931C7.35945 5.00931 7.2565 4.90636 7.2565 4.7743C7.2565 4.64224 7.35945 4.54113 7.4915 4.54113ZM3.97699 7.21215L7.37949 9.07711C7.44944 9.11545 7.53402 9.11545 7.60398 9.07711L11.0046 7.21307V9.10637C11.0046 9.26148 10.936 9.4183 10.7765 9.5837C10.617 9.74911 10.3678 9.91258 10.0491 10.0519C9.41177 10.3305 8.50054 10.5114 7.48968 10.5114C6.47881 10.5114 5.56803 10.3305 4.93071 10.0519C4.61205 9.91258 4.36464 9.74911 4.20513 9.5837C4.04562 9.4183 3.97699 9.26148 3.97699 9.10637L3.97699 7.21215ZM1.63885 8.63819H2.5752V11.2132H1.63885V8.63819ZM1.56616 11.6814H2.65842L2.91765 12.2652H1.30007L1.56616 11.6814Z"/>
</mask>
<path d="M7.47413 0.445888C7.4388 0.448542 7.40464 0.459186 7.374 0.476979L0.116367 4.69155C-0.0413078 4.78311 -0.0380385 5.01174 0.121853 5.09938L1.87385 6.05952V8.17001H1.40568C1.27568 8.17001 1.17068 8.27502 1.17068 8.40501V11.4199L0.724903 12.4019C0.708827 12.4333 0.70204 12.4746 0.70204 12.498V13.3205C0.70204 13.6327 1.17067 13.6327 1.17067 13.3205V12.7339H1.87339V13.3205C1.87339 13.6328 2.34157 13.6328 2.34157 13.3205V12.7339H3.04383V13.3205C3.04383 13.6328 3.51201 13.6328 3.51201 13.3205V12.498C3.51369 12.4637 3.50378 12.4319 3.49144 12.4038L3.04383 11.4002V8.40501C3.04383 8.27573 2.93994 8.17001 2.81066 8.17001H2.34203V6.31602L3.50835 6.95566V9.10637C3.50835 9.40518 3.64932 9.68138 3.86817 9.90832C4.08702 10.1353 4.3853 10.3234 4.74417 10.4803C5.46192 10.7941 6.42389 10.98 7.48967 10.98C8.55545 10.98 9.51971 10.7941 10.2375 10.4803C10.5963 10.3234 10.8946 10.1353 11.1135 9.90832C11.3323 9.68138 11.4728 9.40518 11.4728 9.10637V6.95657L14.8616 5.09938C15.0215 5.01175 15.0225 4.78312 14.8648 4.69155L7.609 0.476977C7.56822 0.453291 7.52116 0.44241 7.47413 0.445888ZM7.4915 0.950191L14.2704 4.88678L7.4915 8.60527L2.78415 6.02386L6.85096 5.0564C6.96047 5.30228 7.20676 5.47612 7.4915 5.47612C7.87658 5.47612 8.19331 5.15939 8.19331 4.7743C8.19331 4.38922 7.87658 4.07294 7.4915 4.07294C7.17349 4.07294 6.90516 4.28974 6.82033 4.58182L2.17424 5.68918L0.710733 4.88678L7.4915 0.950191ZM7.4915 4.54113C7.62356 4.54113 7.72468 4.64224 7.72468 4.7743C7.72468 4.90636 7.62356 5.00931 7.4915 5.00931C7.35945 5.00931 7.2565 4.90636 7.2565 4.7743C7.2565 4.64224 7.35945 4.54113 7.4915 4.54113ZM3.97699 7.21215L7.37949 9.07711C7.44944 9.11545 7.53402 9.11545 7.60398 9.07711L11.0046 7.21307V9.10637C11.0046 9.26148 10.936 9.4183 10.7765 9.5837C10.617 9.74911 10.3678 9.91258 10.0491 10.0519C9.41177 10.3305 8.50054 10.5114 7.48968 10.5114C6.47881 10.5114 5.56803 10.3305 4.93071 10.0519C4.61205 9.91258 4.36464 9.74911 4.20513 9.5837C4.04562 9.4183 3.97699 9.26148 3.97699 9.10637L3.97699 7.21215ZM1.63885 8.63819H2.5752V11.2132H1.63885V8.63819ZM1.56616 11.6814H2.65842L2.91765 12.2652H1.30007L1.56616 11.6814Z" fill="white"/>
<path d="M7.47413 0.445888L7.4004 -0.551392L7.39921 -0.551302L7.47413 0.445888ZM7.374 0.476979L7.87618 1.34174L7.87622 1.34172L7.374 0.476979ZM0.116367 4.69155L-0.385809 3.82678L-0.38582 3.82679L0.116367 4.69155ZM0.121853 5.09938L-0.35879 5.9763L-0.358737 5.97633L0.121853 5.09938ZM1.87385 6.05952H2.87385V5.46723L2.35444 5.18258L1.87385 6.05952ZM1.87385 8.17001V9.17001H2.87385V8.17001H1.87385ZM1.17068 11.4199L2.08126 11.8332L2.17068 11.6362V11.4199H1.17068ZM0.724903 12.4019L1.6145 12.8587L1.62552 12.8372L1.63549 12.8153L0.724903 12.4019ZM1.17067 12.7339V11.7339H0.170673V12.7339H1.17067ZM1.87339 12.7339H2.87339V11.7339H1.87339V12.7339ZM2.34157 12.7339V11.7339H1.34157V12.7339H2.34157ZM3.04383 12.7339H4.04383V11.7339H3.04383V12.7339ZM3.51201 12.498L2.51321 12.4489L2.51201 12.4734V12.498H3.51201ZM3.49144 12.4038L4.40732 12.0023L4.40472 11.9964L3.49144 12.4038ZM3.04383 11.4002H2.04383V11.6131L2.13055 11.8075L3.04383 11.4002ZM2.34203 8.17001H1.34203V9.17001H2.34203V8.17001ZM2.34203 6.31602L2.82289 5.43922L1.34203 4.62708V6.31602H2.34203ZM3.50835 6.95566H4.50835V6.36357L3.98921 6.07886L3.50835 6.95566ZM3.86817 9.90832L3.14834 10.6025L3.14834 10.6025L3.86817 9.90832ZM4.74417 10.4803L4.34362 11.3966H4.34362L4.74417 10.4803ZM10.2375 10.4803L10.638 11.3966L10.638 11.3966L10.2375 10.4803ZM11.4728 6.95657L10.9922 6.07963L10.4728 6.36428V6.95657H11.4728ZM14.8616 5.09938L15.3422 5.97632L15.3422 5.9763L14.8616 5.09938ZM14.8648 4.69155L14.3625 5.55626L14.3625 5.55627L14.8648 4.69155ZM7.609 0.476977L8.11127 -0.387733L8.11125 -0.387746L7.609 0.476977ZM7.4915 0.950191L7.99368 0.0854259L7.49157 -0.206153L6.98943 0.0853669L7.4915 0.950191ZM14.2704 4.88678L14.7514 5.76353L16.3045 4.91159L14.7726 4.02201L14.2704 4.88678ZM7.4915 8.60527L7.01068 9.48209L7.49157 9.7458L7.97244 9.48203L7.4915 8.60527ZM2.78415 6.02386L2.55271 5.05101L0.0263148 5.65202L2.30332 6.90068L2.78415 6.02386ZM6.85096 5.0564L7.76446 4.64956L7.42684 3.8915L6.61953 4.08355L6.85096 5.0564ZM7.4915 5.47612L7.49151 4.47612L7.4915 5.47612ZM6.82033 4.58182L7.05218 5.55457L7.61832 5.41963L7.78064 4.86074L6.82033 4.58182ZM2.17424 5.68918L1.69348 6.56603L2.03131 6.75126L2.40609 6.66193L2.17424 5.68918ZM0.710733 4.88678L0.208658 4.02195L-1.3239 4.91168L0.229975 5.76363L0.710733 4.88678ZM7.72468 4.7743L6.72468 4.7743L7.72468 4.7743ZM3.97699 7.21215L4.45764 6.33524L2.97699 5.52367L2.97699 7.21215H3.97699ZM7.37949 9.07711L6.89884 9.95403L6.89887 9.95405L7.37949 9.07711ZM7.60398 9.07711L8.08458 9.95405L8.08464 9.95402L7.60398 9.07711ZM11.0046 7.21307H12.0046V5.52455L10.524 6.33616L11.0046 7.21307ZM10.7765 9.5837L11.4963 10.2779L11.4963 10.2779L10.7765 9.5837ZM10.0491 10.0519L9.64854 9.13561L9.64854 9.13561L10.0491 10.0519ZM4.93071 10.0519L5.33126 9.13561L5.33126 9.13561L4.93071 10.0519ZM4.20513 9.5837L3.48531 10.2779L3.48531 10.2779L4.20513 9.5837ZM3.97699 9.10637H4.97699V9.10637L3.97699 9.10637ZM1.63885 8.63819V7.63819H0.638854V8.63819H1.63885ZM2.5752 8.63819H3.5752V7.63819H2.5752V8.63819ZM2.5752 11.2132V12.2132H3.5752V11.2132H2.5752ZM1.63885 11.2132H0.638854V12.2132H1.63885V11.2132ZM1.56616 11.6814V10.6814H0.922951L0.656207 11.2667L1.56616 11.6814ZM2.65842 11.6814L3.57238 11.2756L3.30855 10.6814H2.65842V11.6814ZM2.91765 12.2652V13.2652H4.45579L3.83161 11.8594L2.91765 12.2652ZM1.30007 12.2652L0.390114 11.8505L-0.254637 13.2652H1.30007V12.2652ZM7.39921 -0.551302C7.21226 -0.537256 7.03214 -0.480893 6.87178 -0.38776L7.87622 1.34172C7.77714 1.39926 7.66534 1.43434 7.54905 1.44308L7.39921 -0.551302ZM6.87182 -0.387787L-0.385809 3.82678L0.618544 5.55631L7.87618 1.34174L6.87182 -0.387787ZM-0.38582 3.82679C-1.22002 4.31123 -1.19813 5.51625 -0.35879 5.9763L0.602496 4.22246C1.12205 4.50723 1.13741 5.255 0.618555 5.55631L-0.38582 3.82679ZM-0.358737 5.97633L1.39326 6.93647L2.35444 5.18258L0.602442 4.22243L-0.358737 5.97633ZM0.873852 6.05952V8.17001H2.87385V6.05952H0.873852ZM1.87385 7.17001H1.40568V9.17001H1.87385V7.17001ZM1.40568 7.17001C0.723382 7.17001 0.170676 7.72275 0.170676 8.40501H2.17068C2.17068 8.82729 1.82799 9.17001 1.40568 9.17001V7.17001ZM0.170676 8.40501V11.4199H2.17068V8.40501H0.170676ZM0.260089 11.0065L-0.185684 11.9886L1.63549 12.8153L2.08126 11.8332L0.260089 11.0065ZM-0.164697 11.9452C-0.267942 12.1463 -0.29796 12.3512 -0.29796 12.498H1.70204C1.70204 12.569 1.69348 12.6243 1.68493 12.6639C1.67634 12.7037 1.65777 12.7744 1.6145 12.8587L-0.164697 11.9452ZM-0.29796 12.498V13.3205H1.70204V12.498H-0.29796ZM-0.29796 13.3205C-0.29796 13.6701 -0.15683 14.0057 0.111091 14.2437C0.36057 14.4654 0.664846 14.5547 0.936357 14.5547C1.20787 14.5547 1.51214 14.4654 1.76162 14.2437C2.02954 14.0057 2.17067 13.6701 2.17067 13.3205H0.170673C0.170673 13.127 0.253224 12.9085 0.433276 12.7486C0.594887 12.605 0.782004 12.5547 0.936357 12.5547C1.09071 12.5547 1.27783 12.605 1.43944 12.7486C1.61949 12.9085 1.70204 13.127 1.70204 13.3205H-0.29796ZM2.17067 13.3205V12.7339H0.170673V13.3205H2.17067ZM1.17067 13.7339H1.87339V11.7339H1.17067V13.7339ZM0.873393 12.7339V13.3205H2.87339V12.7339H0.873393ZM0.873393 13.3205C0.873393 13.6697 1.01416 14.0052 1.28191 14.2433C1.53131 14.4652 1.83569 14.5547 2.10748 14.5547C2.37927 14.5547 2.68366 14.4652 2.93306 14.2433C3.20081 14.0052 3.34157 13.6697 3.34157 13.3205H1.34157C1.34157 13.1275 1.42381 12.9091 1.60378 12.749C1.76539 12.6053 1.95273 12.5547 2.10748 12.5547C2.26223 12.5547 2.44957 12.6053 2.61119 12.749C2.79115 12.9091 2.87339 13.1275 2.87339 13.3205H0.873393ZM3.34157 13.3205V12.7339H1.34157V13.3205H3.34157ZM2.34157 13.7339H3.04383V11.7339H2.34157V13.7339ZM2.04383 12.7339V13.3205H4.04383V12.7339H2.04383ZM2.04383 13.3205C2.04383 13.6697 2.1846 14.0052 2.45235 14.2433C2.70175 14.4652 3.00613 14.5547 3.27792 14.5547C3.54971 14.5547 3.85409 14.4652 4.10349 14.2433C4.37124 14.0052 4.51201 13.6697 4.51201 13.3205H2.51201C2.51201 13.1275 2.59425 12.9091 2.77422 12.749C2.93583 12.6053 3.12317 12.5547 3.27792 12.5547C3.43267 12.5547 3.62001 12.6053 3.78162 12.749C3.96159 12.9091 4.04383 13.1275 4.04383 13.3205H2.04383ZM4.51201 13.3205V12.498H2.51201V13.3205H4.51201ZM4.51081 12.547C4.52335 12.2914 4.44777 12.0946 4.4073 12.0023L2.57557 12.8053C2.55979 12.7693 2.50403 12.636 2.51321 12.4489L4.51081 12.547ZM4.40472 11.9964L3.95712 10.9929L2.13055 11.8075L2.57816 12.8111L4.40472 11.9964ZM4.04383 11.4002V8.40501H2.04383V11.4002H4.04383ZM4.04383 8.40501C4.04383 7.73367 3.50239 7.17001 2.81066 7.17001V9.17001C2.37749 9.17001 2.04383 8.8178 2.04383 8.40501H4.04383ZM2.81066 7.17001H2.34203V9.17001H2.81066V7.17001ZM3.34203 8.17001V6.31602H1.34203V8.17001H3.34203ZM1.86117 7.19282L3.0275 7.83245L3.98921 6.07886L2.82289 5.43922L1.86117 7.19282ZM2.50835 6.95566V9.10637H4.50835V6.95566H2.50835ZM2.50835 9.10637C2.50835 9.73304 2.80409 10.2455 3.14834 10.6025L4.588 9.21417C4.54354 9.16807 4.52212 9.13238 4.51313 9.11303C4.50517 9.09589 4.50835 9.09522 4.50835 9.10637H2.50835ZM3.14834 10.6025C3.48688 10.9535 3.90984 11.2069 4.34362 11.3966L5.14472 9.56402C4.86075 9.43988 4.68717 9.317 4.588 9.21417L3.14834 10.6025ZM4.34362 11.3966C5.215 11.7775 6.31934 11.98 7.48967 11.98V9.98002C6.52844 9.98002 5.70883 9.81062 5.14472 9.56402L4.34362 11.3966ZM7.48967 11.98C8.65967 11.98 9.76638 11.7776 10.638 11.3966L9.83691 9.56402C9.27304 9.81051 8.45124 9.98002 7.48967 9.98002V11.98ZM10.638 11.3966C11.0718 11.2069 11.4947 10.9535 11.8333 10.6025L10.3936 9.21417C10.2945 9.317 10.1209 9.43988 9.83691 9.56402L10.638 11.3966ZM11.8333 10.6025C12.1783 10.2447 12.4728 9.73217 12.4728 9.10637H10.4728C10.4728 9.09574 10.4759 9.09663 10.468 9.11367C10.4591 9.13288 10.4378 9.16835 10.3936 9.21417L11.8333 10.6025ZM12.4728 9.10637V6.95657H10.4728V9.10637H12.4728ZM11.9534 7.83351L15.3422 5.97632L14.381 4.22244L10.9922 6.07963L11.9534 7.83351ZM15.3422 5.9763C16.1988 5.50683 16.1841 4.30141 15.367 3.82682L14.3625 5.55627C13.8608 5.26483 13.8442 4.51667 14.381 4.22246L15.3422 5.9763ZM15.3671 3.82684L8.11127 -0.387733L7.10673 1.34169L14.3625 5.55626L15.3671 3.82684ZM8.11125 -0.387746C7.89685 -0.512276 7.64912 -0.569778 7.4004 -0.551391L7.54785 1.44317C7.3932 1.4546 7.2396 1.41886 7.10675 1.3417L8.11125 -0.387746ZM6.98933 1.81496L13.7683 5.75154L14.7726 4.02201L7.99368 0.0854259L6.98933 1.81496ZM13.7895 4.01002L7.01057 7.72852L7.97244 9.48203L14.7514 5.76353L13.7895 4.01002ZM7.97233 7.72846L3.26497 5.14704L2.30332 6.90068L7.01068 9.48209L7.97233 7.72846ZM3.01558 6.99671L7.0824 6.02925L6.61953 4.08355L2.55271 5.05101L3.01558 6.99671ZM5.93746 5.46325C6.19854 6.04944 6.78995 6.47612 7.4915 6.47612L7.49151 4.47612C7.62356 4.47612 7.7224 4.55513 7.76446 4.64956L5.93746 5.46325ZM7.4915 6.47612C8.42888 6.47612 9.19331 5.71165 9.19331 4.7743H7.19331C7.19331 4.60712 7.32428 4.47612 7.49151 4.47612L7.4915 6.47612ZM9.19331 4.7743C9.19331 3.8361 8.42803 3.07294 7.4915 3.07294V5.07294C7.32513 5.07294 7.19331 4.94233 7.19331 4.7743H9.19331ZM7.4915 3.07294C6.70613 3.07294 6.06254 3.60562 5.86002 4.3029L7.78064 4.86074C7.74779 4.97386 7.64085 5.07294 7.4915 5.07294V3.07294ZM6.58848 3.60906L1.94239 4.71643L2.40609 6.66193L7.05218 5.55457L6.58848 3.60906ZM2.655 4.81233L1.19149 4.00992L0.229975 5.76363L1.69348 6.56603L2.655 4.81233ZM1.21281 5.7516L7.99358 1.81502L6.98943 0.0853669L0.208658 4.02195L1.21281 5.7516ZM7.4915 5.54113C7.07126 5.54113 6.72468 5.19452 6.72468 4.7743L8.72468 4.77431C8.72468 4.08997 8.17586 3.54113 7.4915 3.54113V5.54113ZM6.72468 4.7743C6.72468 4.36438 7.06103 4.00931 7.4915 4.00931V6.00931C8.18609 6.00931 8.72468 5.44834 8.72468 4.77431L6.72468 4.7743ZM7.4915 4.00931C7.91175 4.00931 8.2565 4.3541 8.2565 4.7743H6.2565C6.2565 5.45863 6.80714 6.00931 7.4915 6.00931V4.00931ZM8.2565 4.7743C8.2565 5.20474 7.90147 5.54113 7.4915 5.54113V3.54113C6.81743 3.54113 6.2565 4.07975 6.2565 4.7743H8.2565ZM3.49634 8.08907L6.89884 9.95403L7.86014 8.2002L4.45764 6.33524L3.49634 8.08907ZM6.89887 9.95405C7.26823 10.1565 7.71524 10.1565 8.08458 9.95405L7.12337 8.20018C7.35281 8.07443 7.63065 8.07443 7.8601 8.20018L6.89887 9.95405ZM8.08464 9.95402L11.4853 8.08997L10.524 6.33616L7.12331 8.20021L8.08464 9.95402ZM10.0046 7.21307V9.10637H12.0046V7.21307H10.0046ZM10.0046 9.10637C10.0046 9.02987 10.023 8.96369 10.0447 8.91731C10.064 8.87594 10.0779 8.86756 10.0567 8.88955L11.4963 10.2779C11.778 9.98577 12.0046 9.59293 12.0046 9.10637H10.0046ZM10.0567 8.88954C10.0172 8.93053 9.89286 9.02881 9.64854 9.13561L10.4496 10.9682C10.8427 10.7964 11.2168 10.5677 11.4963 10.2779L10.0567 8.88954ZM9.64854 9.13561C9.16533 9.34685 8.39663 9.51138 7.48968 9.51138V11.5114C8.60444 11.5114 9.65822 11.3141 10.4496 10.9682L9.64854 9.13561ZM7.48968 9.51138C6.58279 9.51138 5.81453 9.34688 5.33126 9.13561L4.53016 10.9682C5.32153 11.3141 6.37484 11.5114 7.48968 11.5114V9.51138ZM5.33126 9.13561C5.08943 9.0299 4.96583 8.93193 4.92496 8.88955L3.48531 10.2779C3.76345 10.5663 4.13467 10.7953 4.53016 10.9682L5.33126 9.13561ZM4.92496 8.88955C4.90375 8.86756 4.91761 8.87594 4.93697 8.9173C4.95867 8.96367 4.97699 9.02986 4.97699 9.10637H2.97699C2.97699 9.59294 3.20364 9.98578 3.48531 10.2779L4.92496 8.88955ZM4.97699 9.10637L4.97699 7.21215L2.97699 7.21215L2.97699 9.10637L4.97699 9.10637ZM1.63885 9.63819H2.5752V7.63819H1.63885V9.63819ZM1.5752 8.63819V11.2132H3.5752V8.63819H1.5752ZM2.5752 10.2132H1.63885V12.2132H2.5752V10.2132ZM2.63885 11.2132V8.63819H0.638854V11.2132H2.63885ZM1.56616 12.6814H2.65842V10.6814H1.56616V12.6814ZM1.74445 12.0872L2.00369 12.671L3.83161 11.8594L3.57238 11.2756L1.74445 12.0872ZM2.91765 11.2652H1.30007V13.2652H2.91765V11.2652ZM2.21002 12.68L2.47611 12.0961L0.656207 11.2667L0.390114 11.8505L2.21002 12.68Z" fill="white" mask="url(#path-1-inside-1_9_2133)"/>
</svg>
